<svg xmlns="http://www.w3.org/2000/svg" viewBox="0 0 67.6 48.5"><path d="M66.6 13c-.8-4.4-4-10.3-11.4-11.8-.7-.1-1.3-.2-2-.3C50.5.6 42.8 0 33.8 0S17.1.6 14.4.9c-.7.1-1.4.1-2 .3C5 2.7 1.8 8.6 1 13c-.7 4.3-1 6-1 11.2s.3 7 1 11.2c.8 4.4 4 10.3 11.4 11.8.7.1 1.3.2 2 .3 2.7.3 10.4.9 19.4.9s16.7-.6 19.4-.9c.7-.1 1.3-.1 2-.3 7.4-1.5 10.6-7.4 11.4-11.8.7-4.3 1-6 1-11.2s-.3-6.9-1-11.2z" fill="#fff"/><path d="M27.4 15.4L42 22.7c1.2.7 1.2 2.3 0 3l-14.7 7.4c-1.2.7-2.6-.2-2.6-1.5V16.9c0-1.4 1.5-2.2 2.7-1.5z" fill="#c21a82"/></svg>